# xmcd
#
# Track frame offsets:
#	150
#	15913
#	30482
#	42653
#	58610
#	71150
#	86043
#	101168
#	118501
#	127424
#	141639
#	157960
#	173365
#	188191
#
# Disc length: 2699 seconds
#
# Revision: 0
# Processed by: cddbd v1.4PL0 Copyright (c) Steve Scherf et al.
# Submitted via: EasyCDDAExtractor 4.6.0.1
#
DISCID=c50a890e
DTITLE=Coyote Dax - Me Vale
DYEAR=1900
DGENRE=Country
TTITLE0=No rompas mi corazón
TTITLE1=Arriba y abajo
TTITLE2=Chatahochie
TTITLE3=Johnny Boy
TTITLE4=Corazón vanidoso
TTITLE5=Me vale (cotton eyed joe)
TTITLE6=Jambalaya (on the bayou)
TTITLE7=Carretera 54
TTITLE8=Ranchero
TTITLE9=Se murió de amor
TTITLE10=Rock on
TTITLE11=Payaso de rodeo
TTITLE12=Chiquilla Escandalosa
TTITLE13="Hey Baby, Que paso"
EXTD=
EXTT0=
EXTT1=
EXTT2=
EXTT3=
EXTT4=
EXTT5=
EXTT6=
EXTT7=
EXTT8=
EXTT9=
EXTT10=
EXTT11=
EXTT12=
EXTT13=
PLAYORDER=
